<?xml version="1.0" standalone="no"?>
<!DOCTYPE svg PUBLIC "-//W3C//DTD SVG 20010904//EN"
 "http://www.w3.org/TR/2001/REC-SVG-20010904/DTD/svg10.dtd">
<svg version="1.0" xmlns="http://www.w3.org/2000/svg"
 width="330.000000pt" height="146.000000pt" viewBox="0 0 330.000000 146.000000"
 preserveAspectRatio="xMidYMid meet">

<g transform="translate(0.000000,146.000000) scale(0.100000,-0.100000)"
fill="#000000" stroke="none">
<path d="M1510 1404 c-416 -57 -739 -216 -840 -414 -34 -66 -38 -168 -11 -240
76 -201 403 -373 822 -434 147 -22 552 -22 698 0 416 61 712 212 817 415 41
78 40 170 -1 254 -91 187 -371 336 -760 406 -158 28 -563 36 -725 13z m617
-29 c425 -55 750 -226 820 -432 20 -59 13 -154 -16 -211 -50 -98 -190 -206
-357 -276 -564 -236 -1472 -140 -1770 187 -131 143 -134 283 -10 424 129 146
407 263 736 308 135 18 453 18 597 0z"/>
<path d="M2160 1199 c-62 -41 -129 -107 -136 -134 -6 -23 15 -75 43 -107 8 -9
13 -30 11 -49 -4 -46 -42 -65 -168 -84 -154 -23 -232 -49 -365 -124 -44 -25
-105 -51 -135 -57 -49 -11 -51 -12 -19 -13 44 -1 111 21 195 65 99 52 196 83
322 103 136 22 184 39 208 76 14 22 15 32 6 63 -7 20 -23 50 -37 66 -14 16
-25 39 -25 50 0 22 83 116 135 154 45 32 17 25 -35 -9z"/>
<path d="M1624 1077 c-107 -79 -229 -175 -308 -243 -107 -93 -204 -135 -344
-150 -40 -4 -66 -12 -69 -21 -6 -15 14 -43 30 -43 7 0 7 4 -1 12 -22 22 -13
34 26 34 135 2 294 76 442 205 58 51 147 125 197 166 79 63 114 95 101 92 -2
0 -35 -24 -74 -52z"/>
<path d="M1928 1013 c-3 -33 -7 -38 -43 -49 -39 -13 -39 -13 -5 -7 57 9 69 19
67 58 -3 46 -15 45 -19 -2z"/>
<path d="M1818 963 c7 -3 16 -2 19 1 4 3 -2 6 -13 5 -11 0 -14 -3 -6 -6z"/>
<path d="M2598 963 c7 -3 16 -2 19 1 4 3 -2 6 -13 5 -11 0 -14 -3 -6 -6z"/>
<path d="M2430 948 c-135 -11 -200 -30 -278 -80 -42 -27 -101 -52 -174 -74
-61 -18 -118 -40 -126 -48 -20 -20 -8 -46 20 -45 17 1 18 2 6 6 -46 12 2 40
140 82 40 12 105 39 146 60 74 39 89 44 301 85 130 26 125 28 -35 14z"/>
<path d="M2726 893 c-97 -20 -169 -52 -297 -133 -155 -97 -244 -127 -483 -161
-49 -7 -85 -14 -78 -17 15 -5 290 36 359 54 55 14 123 46 378 177 61 31 144
65 185 76 92 24 43 28 -64 4z"/>
<path d="M2185 768 c-16 -12 -47 -36 -67 -54 -43 -38 -120 -64 -280 -94 -115
-22 -148 -33 -148 -51 0 -5 10 -3 23 5 12 8 83 27 157 41 216 43 290 74 340
145 25 35 17 38 -25 8z"/>
<path d="M1895 720 c3 -5 14 -10 23 -10 15 0 15 2 2 10 -20 13 -33 13 -25 0z"/>
<path d="M1720 680 c-27 -15 -30 -19 -15 -20 13 0 5 -7 -22 -20 -24 -10 -43
-21 -43 -25 0 -3 24 -4 53 -4 47 2 49 2 17 8 -51 10 -18 19 115 30 101 9 214
27 222 34 1 2 -32 3 -75 3 -42 0 -108 2 -147 6 -59 6 -76 4 -105 -12z"/>
<path d="M1040 650 c-30 -16 -63 -29 -72 -30 -10 0 -18 -4 -18 -10 0 -12 34
-30 57 -29 18 1 17 2 -26 15 -8 2 7 15 34 30 52 27 71 27 30 0 -21 -14 -24
-20 -14 -32 6 -8 23 -14 38 -13 24 1 22 2 -18 15 -14 5 2 22 52 58 18 13 19
14 3 9 -13 -4 -17 -3 -12 5 9 16 10 16 -54 -18z"/>
<path d="M1229 640 c-17 -21 -39 -41 -48 -43 -14 -4 -14 -5 1 -6 9 0 20 4 23
9 3 6 26 10 51 10 48 0 84 14 84 31 0 6 -7 3 -16 -5 -9 -9 -31 -16 -52 -15
-20 0 -31 3 -24 6 6 2 9 9 6 14 -3 6 0 16 6 24 7 8 10 15 7 15 -3 0 -20 -18
-38 -40z"/>
<path d="M1148 654 c-25 -13 -54 -51 -46 -59 2 -2 17 -6 33 -9 28 -6 29 -6 5
4 -20 9 -22 13 -10 20 8 5 11 10 5 10 -5 0 4 12 20 25 34 28 32 31 -7 9z"/>
<path d="M1818 573 c6 -2 18 -2 25 0 6 3 1 5 -13 5 -14 0 -19 -2 -12 -5z"/>
<path d="M845 249 c-16 -10 -25 -19 -19 -19 13 0 74 29 74 36 0 9 -27 1 -55
-17z"/>
<path d="M1217 253 c-4 -3 -7 -16 -7 -28 0 -21 -3 -22 -37 -13 -26 7 -47 7
-65 -1 -28 -11 -63 -65 -53 -81 11 -18 68 -10 111 15 l43 25 3 -22 c2 -13 11
-24 23 -27 17 -3 17 -1 6 12 -9 11 -11 32 -6 71 7 52 0 68 -18 49z m-32 -57
c18 -13 15 -15 -33 -40 -28 -14 -56 -26 -62 -26 -16 0 -12 25 11 54 23 29 55
33 84 12z"/>
<path d="M2204 245 c-24 -18 -7 -19 26 0 16 9 19 14 9 15 -8 0 -24 -7 -35 -15z"/>
<path d="M2644 189 c-2 -74 6 -84 42 -51 35 31 77 62 85 62 5 0 9 -18 9 -40 0
-25 5 -40 13 -40 8 0 11 14 9 45 -4 39 -7 45 -27 45 -12 0 -37 -10 -56 -23
-19 -13 -38 -26 -44 -29 -6 -4 -9 12 -7 42 3 33 0 49 -10 52 -10 4 -13 -11
-14 -63z"/>
<path d="M487 233 c-3 -5 32 -9 76 -10 90 -2 153 -18 127 -33 -9 -5 -44 -12
-78 -16 l-63 -7 11 27 c9 24 8 27 -7 24 -10 -2 -20 -14 -22 -28 -1 -14 -8 -28
-15 -32 -8 -6 -8 -8 2 -8 6 0 12 -7 12 -15 0 -9 9 -15 23 -14 12 0 16 3 10 6
-7 2 -13 11 -13 18 0 8 21 15 63 20 34 3 76 12 92 19 29 12 29 13 9 24 -42 23
-217 42 -227 25z"/>
<path d="M1615 220 c-19 -8 -19 -9 3 -9 20 -1 23 -5 20 -41 -1 -22 1 -42 4
-46 13 -12 26 6 21 27 -5 19 -3 21 23 16 16 -3 54 -15 84 -26 31 -12 77 -20
105 -19 l50 1 -55 6 c-30 4 -72 13 -93 21 l-38 14 67 13 c97 18 100 27 14 43
-63 12 -177 12 -205 0z m227 -16 c18 -12 -30 -21 -109 -23 -58 -1 -63 1 -63
20 0 21 3 22 79 16 44 -3 86 -9 93 -13z"/>
<path d="M793 202 c-29 -23 -39 -65 -19 -81 18 -15 101 -7 112 11 4 7 -1 7
-17 2 -13 -4 -37 -8 -54 -9 -23 0 -30 4 -30 20 0 14 8 21 30 25 41 7 69 25 61
39 -11 17 -58 13 -83 -7z m53 -7 c-11 -8 -27 -15 -35 -15 -13 1 -12 4 3 15 11
8 27 15 35 15 13 -1 12 -4 -3 -15z"/>
<path d="M1348 203 c-35 -22 -46 -62 -21 -81 19 -14 83 -9 112 9 12 8 8 8 -14
3 -57 -14 -80 -11 -80 11 0 14 9 21 32 26 38 7 65 27 57 40 -9 14 -57 10 -86
-8z m48 -8 c-26 -19 -42 -19 -26 0 7 8 20 15 29 15 13 -1 13 -3 -3 -15z"/>
<path d="M1975 197 c-8 -12 -16 -34 -17 -47 -3 -22 1 -25 29 -24 17 1 46 12
62 24 l31 21 0 -25 c0 -20 5 -26 23 -26 16 0 18 3 9 9 -11 6 -11 17 -4 44 9
32 8 36 -12 41 -11 3 -40 6 -63 6 -33 0 -46 -5 -58 -23z m105 5 c0 -18 -95
-80 -106 -69 -2 2 3 20 11 40 14 34 19 37 55 37 22 0 40 -4 40 -8z"/>
<path d="M2905 197 c-8 -12 -16 -34 -17 -47 -3 -22 1 -25 29 -24 17 1 46 12
62 24 l31 21 0 -25 c0 -20 5 -26 23 -26 16 0 18 3 9 9 -11 6 -11 17 -4 44 9
32 8 36 -12 41 -11 3 -40 6 -63 6 -33 0 -46 -5 -58 -23z m105 5 c0 -18 -95
-80 -106 -69 -2 2 3 20 11 40 14 34 19 37 55 37 22 0 40 -4 40 -8z"/>
<path d="M2197 173 c-4 -20 -4 -40 -1 -45 8 -12 45 -9 79 8 29 14 29 14 3 9
-14 -3 -34 -8 -44 -12 -15 -6 -16 -2 -10 35 5 32 3 42 -8 42 -8 0 -16 -15 -19
-37z"/>
<path d="M2434 182 c-67 -48 -67 -48 -59 -13 5 24 3 31 -9 31 -12 0 -16 -10
-16 -40 0 -48 12 -51 61 -14 64 48 68 48 80 15 10 -27 16 -31 49 -31 21 0 43
7 50 15 15 18 7 19 -19 3 -26 -16 -50 -4 -62 32 -13 37 -26 38 -75 2z"/>
</g>
</svg>
